<?xml version="1.0" encoding="UTF-8"?>
<svg version="1.1" xmlns="http://www.w3.org/2000/svg" width="500" height="500">
<path d="M0 0 C55.11 0 110.22 0 167 0 C167 10.89 167 21.78 167 33 C148.85 33 130.7 33 112 33 C112 42.9 112 52.8 112 63 C128.83 63 145.66 63 163 63 C163 73.89 163 84.78 163 96 C146.17 96 129.34 96 112 96 C112 116.79 112 137.58 112 159 C99.79 159 87.58 159 75 159 C75 117.42 75 75.84 75 33 C62.79 33 50.58 33 38 33 C38 74.58 38 116.16 38 159 C25.79 159 13.58 159 1 159 C1 117.42 1 75.84 1 33 C-3.62 33 -8.24 33 -13 33 C-11.9275 31.411875 -10.855 29.82375 -9.75 28.1875 C-3.8728739 18.91470104 -1.98285819 10.90572007 0 0 Z " fill="#000000" transform="translate(189,136)"/>
<path d="M0 0 C3.50252011 2.04313673 5.77361702 4.09787233 7 8 C7.4650834 12.18575059 7.26947631 14.46104738 5.375 18.25 C2.69318176 21.35526323 0.88980521 22.70339826 -3 24 C-9.08432021 24 -11.8194017 22.08106025 -16 18 C-17.74221711 14.51556578 -17.58675154 10.80112955 -17 7 C-13.00692367 -0.21137665 -7.63035896 -0.87719087 0 0 Z " fill="#000000" transform="translate(352,276)"/>
</svg>
